<svg width="60" height="60" viewBox="0 0 60 60" fill="none" xmlns="http://www.w3.org/2000/svg">
<path d="M30 5.61676C24.0637 5.61701 18.3212 7.72954 13.7999 11.5764C9.27868 15.4232 6.27376 20.7533 5.32284 26.613C4.37192 32.4726 5.53705 38.4794 8.60976 43.5586C11.6825 48.6378 16.4622 52.458 22.0938 54.3355C23.3438 54.5543 23.8126 53.8043 23.8126 53.148C23.8126 52.5543 23.7813 50.5855 23.7813 48.4918C17.5 49.648 15.875 46.9606 15.375 45.5543C14.8202 44.1866 13.9407 42.9746 12.8125 42.023C11.9375 41.5543 10.6875 40.398 12.7812 40.3668C13.5807 40.4536 14.3475 40.7318 15.0166 41.1778C15.6857 41.6239 16.2374 42.2246 16.625 42.9292C16.9669 43.5435 17.4267 44.0842 17.978 44.5205C18.5293 44.9567 19.1612 45.2799 19.8376 45.4715C20.514 45.6631 21.2215 45.7194 21.9197 45.637C22.6179 45.5547 23.2929 45.3354 23.9062 44.9917C24.0144 43.7208 24.5809 42.5325 25.5 41.6481C19.9375 41.0231 14.125 38.8667 14.125 29.3043C14.0899 26.8197 15.0067 24.4158 16.6875 22.5856C15.9232 20.4261 16.0126 18.0563 16.9375 15.9606C16.9375 15.9606 19.0312 15.3043 23.8125 18.5231C27.9032 17.398 32.2218 17.398 36.3125 18.5231C41.0937 15.2731 43.1875 15.9606 43.1875 15.9606C44.1125 18.0563 44.2019 20.4262 43.4375 22.5856C45.1234 24.4126 46.041 26.8187 46 29.3043C46 38.898 40.1562 41.0231 34.5938 41.6481C35.1904 42.2528 35.6499 42.9788 35.9411 43.7769C36.2322 44.5749 36.3483 45.4262 36.2813 46.2731C36.2813 49.6169 36.25 52.3043 36.25 53.1481C36.25 53.8044 36.7187 54.5856 37.9687 54.3356C43.5904 52.4428 48.3564 48.6137 51.416 43.5319C54.4757 38.4501 55.6297 32.4463 54.6722 26.5924C53.7147 20.7384 50.7079 15.4152 46.1887 11.573C41.6694 7.73089 35.9318 5.61985 30 5.61676Z" fill="white"/>
</svg>
