<svg width="807" height="85" viewBox="0 0 807 85" fill="none" xmlns="http://www.w3.org/2000/svg">
<g filter="url(#filter0_d_102_36)">
<path d="M27.624 27.048V29.048H29.624V27.048H27.624ZM21 27.048V25.048H19V27.048H21ZM21 57V59H23V57H21ZM8.688 57H6.688V59H8.688V57ZM8.688 27.048H10.688V25.048H8.688V27.048ZM4.224 27.048H2.224V29.048H4.224V27.048ZM4.224 16.824V14.824H2.224V16.824H4.224ZM8.688 16.824V18.824H10.688V16.824H8.688ZM12.936 4.44L14.2725 5.92784L14.2795 5.92162L14.2863 5.91534L12.936 4.44ZM27.408 0.623996H29.408V-1.16609L27.6289 -1.36377L27.408 0.623996ZM27.408 11.064L27.2858 13.0603L29.408 13.1902V11.064H27.408ZM22.44 12.072L23.7353 13.5959L23.7353 13.5959L22.44 12.072ZM21 16.824H19V18.824H21V16.824ZM27.624 16.824H29.624V14.824H27.624V16.824ZM27.624 25.048H21V29.048H27.624V25.048ZM19 27.048V57H23V27.048H19ZM21 55H8.688V59H21V55ZM10.688 57V27.048H6.688V57H10.688ZM8.688 25.048H4.224V29.048H8.688V25.048ZM6.224 27.048V16.824H2.224V27.048H6.224ZM4.224 18.824H8.688V14.824H4.224V18.824ZM10.688 16.824V15.672H6.688V16.824H10.688ZM10.688 15.672C10.688 11.1158 11.9803 7.98697 14.2725 5.92784L11.5995 2.95216C8.2277 5.98103 6.688 10.3402 6.688 15.672H10.688ZM14.2863 5.91534C16.6187 3.78063 20.2083 2.552 25.392 2.552V-1.448C19.6317 -1.448 14.9173 -0.0846369 11.5857 2.96465L14.2863 5.91534ZM25.392 2.552C26.2919 2.552 26.8713 2.57668 27.1871 2.61176L27.6289 -1.36377C27.0807 -1.42468 26.3161 -1.448 25.392 -1.448V2.552ZM25.408 0.623996V11.064H29.408V0.623996H25.408ZM27.5302 9.06774C25.0627 8.91666 22.7238 9.20588 21.1447 10.5481L23.7353 13.5959C24.0762 13.3061 25.0493 12.9233 27.2858 13.0603L27.5302 9.06774ZM21.1447 10.5481C19.5105 11.9372 19 14.1492 19 16.464H23C23 14.5548 23.4495 13.8388 23.7353 13.5959L21.1447 10.5481ZM19 16.464V16.824H23V16.464H19ZM21 18.824H27.624V14.824H21V18.824ZM25.624 16.824V27.048H29.624V16.824H25.624ZM49.6813 23.52H47.6813V30.2479L51.3565 24.6125L49.6813 23.52ZM55.0813 18.336L56.0819 20.0677L56.0962 20.0595L56.1103 20.051L55.0813 18.336ZM62.2813 16.392H64.2813V14.392H62.2813V16.392ZM62.2813 29.424V31.424H64.2813V29.424H62.2813ZM51.9853 31.44L53.2751 32.9686L53.2888 32.957L53.3023 32.9452L51.9853 31.44ZM49.6813 57V59H51.6813V57H49.6813ZM37.3693 57H35.3693V59H37.3693V57ZM37.3693 16.824V14.824H35.3693V16.824H37.3693ZM49.6813 16.824H51.6813V14.824H49.6813V16.824ZM51.3565 24.6125C52.635 22.6523 54.2092 21.1497 56.0819 20.0677L54.0808 16.6043C51.6334 18.0183 49.6077 19.9717 48.0061 22.4275L51.3565 24.6125ZM56.1103 20.051C57.9442 18.9506 59.9856 18.392 62.2813 18.392V14.392C59.297 14.392 56.5384 15.1294 54.0523 16.621L56.1103 20.051ZM60.2813 16.392V29.424H64.2813V16.392H60.2813ZM62.2813 27.424H58.8973V31.424H62.2813V27.424ZM58.8973 27.424C55.5777 27.424 52.7145 28.1444 50.6683 29.9348L53.3023 32.9452C54.3281 32.0476 56.0729 31.424 58.8973 31.424V27.424ZM50.6956 29.9114C48.4862 31.7755 47.6813 34.8234 47.6813 38.352H51.6813C51.6813 35.2566 52.4124 33.6965 53.2751 32.9686L50.6956 29.9114ZM47.6813 38.352V57H51.6813V38.352H47.6813ZM49.6813 55H37.3693V59H49.6813V55ZM39.3693 57V16.824H35.3693V57H39.3693ZM37.3693 18.824H49.6813V14.824H37.3693V18.824ZM47.6813 16.824V23.52H51.6813V16.824H47.6813ZM79.7582 55.056L78.81 56.817L78.8212 56.8229L79.7582 55.056ZM72.3422 47.856L70.6041 48.8454L70.6098 48.8554L70.6156 48.8654L72.3422 47.856ZM72.4142 26.04L74.1408 27.0494L74.1474 27.0379L72.4142 26.04ZM79.9022 18.768L80.8392 20.5349L80.8392 20.5349L79.9022 18.768ZM101.214 18.768L100.277 20.5349L100.277 20.5349L101.214 18.768ZM108.702 26.04L106.969 27.038L106.976 27.0494L108.702 26.04ZM108.63 47.856L106.908 46.8385L106.904 46.8466L108.63 47.856ZM101.07 55.056L100.144 53.2833L100.133 53.2891L101.07 55.056ZM96.3902 44.328L94.9562 42.9338L94.9461 42.9442L94.9362 42.9548L96.3902 44.328ZM96.4622 29.496L94.9879 30.8474L94.9979 30.8584L95.0082 30.8692L96.4622 29.496ZM84.5822 29.496L86.0374 30.868L86.047 30.8578L86.0565 30.8474L84.5822 29.496ZM84.5102 44.328L83.0154 45.6567L83.0255 45.6682L83.0359 45.6794L84.5102 44.328ZM90.4142 55.576C86.7723 55.576 83.5471 54.8015 80.6952 53.2891L78.8212 56.8229C82.3052 58.6705 86.1841 59.576 90.4142 59.576V55.576ZM80.7064 53.2951C77.9167 51.7929 75.7112 49.656 74.0688 46.8466L70.6156 48.8654C72.6212 52.296 75.3597 54.9591 78.81 56.8169L80.7064 53.2951ZM74.0803 46.8666C72.5022 44.0942 71.6782 40.7982 71.6782 36.912H67.6782C67.6782 41.3778 68.6302 45.3778 70.6041 48.8454L74.0803 46.8666ZM71.6782 36.912C71.6782 33.0874 72.5201 29.8217 74.1408 27.0494L70.6876 25.0306C68.6603 28.4983 67.6782 32.4806 67.6782 36.912H71.6782ZM74.1474 27.0379C75.7875 24.1894 78.0104 22.035 80.8392 20.5349L78.9652 17.0011C75.4579 18.861 72.6889 21.5546 70.6809 25.0421L74.1474 27.0379ZM80.8392 20.5349C83.6911 19.0225 86.9163 18.248 90.5582 18.248V14.248C86.3281 14.248 82.4492 15.1535 78.9652 17.0011L80.8392 20.5349ZM90.5582 18.248C94.2001 18.248 97.4252 19.0225 100.277 20.5349L102.151 17.0011C98.6671 15.1535 94.7883 14.248 90.5582 14.248V18.248ZM100.277 20.5349C103.106 22.035 105.329 24.1894 106.969 27.0379L110.435 25.0421C108.428 21.5546 105.658 18.861 102.151 17.0011L100.277 20.5349ZM106.976 27.0494C108.596 29.8217 109.438 33.0874 109.438 36.912H113.438C113.438 32.4806 112.456 28.4983 110.429 25.0306L106.976 27.0494ZM109.438 36.912C109.438 40.7267 108.577 44.015 106.908 46.8385L110.352 48.8735C112.428 45.361 113.438 41.3533 113.438 36.912H109.438ZM106.904 46.8466C105.27 49.6406 103.028 51.7767 100.144 53.2833L101.996 56.8287C105.544 54.9753 108.342 52.3114 110.357 48.8654L106.904 46.8466ZM100.133 53.2891C97.2812 54.8015 94.0561 55.576 90.4142 55.576V59.576C94.6443 59.576 98.5231 58.6705 102.007 56.8229L100.133 53.2891ZM90.4142 48.92C93.323 48.92 95.8389 47.8245 97.8442 45.7012L94.9362 42.9548C93.6775 44.2875 92.2094 44.92 90.4142 44.92V48.92ZM97.8242 45.7222C99.9753 43.5096 100.91 40.4696 100.91 36.912H96.9102C96.9102 39.7864 96.1651 41.6904 94.9562 42.9338L97.8242 45.7222ZM100.91 36.912C100.91 33.369 100.007 30.3369 97.9162 28.1228L95.0082 30.8692C96.181 32.1111 96.9102 34.023 96.9102 36.912H100.91ZM97.9365 28.1445C95.9722 26.0017 93.4687 24.904 90.5582 24.904V28.904C92.3517 28.904 93.7841 29.5343 94.9879 30.8474L97.9365 28.1445ZM90.5582 24.904C87.6127 24.904 85.0808 25.9922 83.1079 28.1445L86.0565 30.8474C87.2515 29.5438 88.7036 28.904 90.5582 28.904V24.904ZM83.127 28.124C81.0709 30.3047 80.2062 33.3494 80.2062 36.912H84.2062C84.2062 33.9466 84.9255 32.0473 86.0374 30.868L83.127 28.124ZM80.2062 36.912C80.2062 40.4263 81.0459 43.4411 83.0154 45.6567L86.005 42.9993C84.9024 41.7589 84.2062 39.8297 84.2062 36.912H80.2062ZM83.0359 45.6794C85.0001 47.8223 87.5037 48.92 90.4142 48.92V44.92C88.6207 44.92 87.1882 44.2897 85.9845 42.9765L83.0359 45.6794ZM157.642 21L156.16 22.343L156.171 22.3552L156.182 22.3671L157.642 21ZM161.89 57V59H163.89V57H161.89ZM149.65 57H147.65V59H149.65V57ZM147.562 28.92L146.101 30.2863L146.101 30.2863L147.562 28.92ZM136.33 28.92L137.79 30.2863L137.79 30.2863L136.33 28.92ZM134.242 57V59H136.242V57H134.242ZM121.93 57H119.93V59H121.93V57ZM121.93 16.824V14.824H119.93V16.824H121.93ZM134.242 16.824H136.242V14.824H134.242V16.824ZM134.242 22.152H132.242V28.4767L135.878 23.3019L134.242 22.152ZM139.282 17.976L140.143 19.781L140.16 19.7731L140.176 19.7649L139.282 17.976ZM146.41 18.392C150.633 18.392 153.808 19.7479 156.16 22.343L159.124 19.657C155.908 16.1081 151.594 14.392 146.41 14.392V18.392ZM156.182 22.3671C158.576 24.9236 159.89 28.5573 159.89 33.528H163.89C163.89 27.8427 162.372 23.1244 159.102 19.6329L156.182 22.3671ZM159.89 33.528V57H163.89V33.528H159.89ZM161.89 55H149.65V59H161.89V55ZM151.65 57V35.184H147.65V57H151.65ZM151.65 35.184C151.65 32.1549 150.86 29.518 149.022 27.5537L146.101 30.2863C147.048 31.298 147.65 32.8371 147.65 35.184H151.65ZM149.022 27.5537C147.193 25.5979 144.758 24.688 141.946 24.688V28.688C143.838 28.688 145.147 29.2661 146.101 30.2863L149.022 27.5537ZM141.946 24.688C139.134 24.688 136.699 25.5979 134.869 27.5537L137.79 30.2863C138.745 29.2661 140.054 28.688 141.946 28.688V24.688ZM134.869 27.5537C133.032 29.518 132.242 32.1549 132.242 35.184H136.242C136.242 32.8371 136.844 31.298 137.79 30.2863L134.869 27.5537ZM132.242 35.184V57H136.242V35.184H132.242ZM134.242 55H121.93V59H134.242V55ZM123.93 57V16.824H119.93V57H123.93ZM121.93 18.824H134.242V14.824H121.93V18.824ZM132.242 16.824V22.152H136.242V16.824H132.242ZM135.878 23.3019C136.913 21.8291 138.317 20.6528 140.143 19.781L138.42 16.171C136.023 17.3152 134.067 18.9229 132.606 21.0021L135.878 23.3019ZM140.176 19.7649C141.979 18.8634 144.043 18.392 146.41 18.392V14.392C143.496 14.392 140.809 14.9766 138.388 16.1871L140.176 19.7649ZM196.798 46.56H198.798V44.56H196.798V46.56ZM196.798 57V59H198.798V57H196.798ZM180.094 53.76L178.768 55.258L178.777 55.2652L178.785 55.2723L180.094 53.76ZM176.35 27.048H178.35V25.048H176.35V27.048ZM171.454 27.048H169.454V29.048H171.454V27.048ZM171.454 16.824V14.824H169.454V16.824H171.454ZM176.35 16.824V18.824H178.35V16.824H176.35ZM176.35 7.032V5.032H174.35V7.032H176.35ZM188.662 7.032H190.662V5.032H188.662V7.032ZM188.662 16.824H186.662V18.824H188.662V16.824ZM196.726 16.824H198.726V14.824H196.726V16.824ZM196.726 27.048V29.048H198.726V27.048H196.726ZM188.662 27.048V25.048H186.662V27.048H188.662ZM189.526 45.768L188.174 47.2423L188.174 47.2423L189.526 45.768ZM194.798 46.56V57H198.798V46.56H194.798ZM196.798 55H190.534V59H196.798V55ZM190.534 55C186.38 55 183.424 53.9971 181.402 52.2477L178.785 55.2723C181.755 57.8429 185.759 59 190.534 59V55ZM181.419 52.262C179.525 50.5865 178.35 47.6835 178.35 43.032H174.35C174.35 48.2685 175.67 52.5175 178.768 55.258L181.419 52.262ZM178.35 43.032V27.048H174.35V43.032H178.35ZM176.35 25.048H171.454V29.048H176.35V25.048ZM173.454 27.048V16.824H169.454V27.048H173.454ZM171.454 18.824H176.35V14.824H171.454V18.824ZM178.35 16.824V7.032H174.35V16.824H178.35ZM176.35 9.032H188.662V5.032H176.35V9.032ZM186.662 7.032V16.824H190.662V7.032H186.662ZM188.662 18.824H196.726V14.824H188.662V18.824ZM194.726 16.824V27.048H198.726V16.824H194.726ZM196.726 25.048H188.662V29.048H196.726V25.048ZM186.662 27.048V43.176H190.662V27.048H186.662ZM186.662 43.176C186.662 44.6386 187.007 46.1725 188.174 47.2423L190.877 44.2937C190.874 44.2909 190.863 44.2807 190.847 44.2543C190.83 44.2266 190.803 44.1758 190.775 44.0915C190.717 43.9166 190.662 43.6252 190.662 43.176H186.662ZM188.174 47.2423C189.306 48.2803 190.893 48.56 192.406 48.56V44.56C191.23 44.56 190.897 44.3117 190.877 44.2937L188.174 47.2423ZM192.406 48.56H196.798V44.56H192.406V48.56ZM245.272 39.864V41.864H247.054L247.258 40.0932L245.272 39.864ZM217.408 39.864V37.864H215.248L215.413 40.0174L217.408 39.864ZM219.784 45.624L218.394 47.0628L218.42 47.0871L218.446 47.1106L219.784 45.624ZM231.448 43.68V41.68H230.17L229.633 42.8398L231.448 43.68ZM244.552 43.68L246.49 44.1734L247.124 41.68H244.552V43.68ZM240.88 50.808L239.349 49.5208L239.34 49.5311L239.332 49.5415L240.88 50.808ZM234.328 55.776L235.155 57.5967L234.328 55.776ZM214.96 55.056L214 56.8107L214 56.8107L214.96 55.056ZM207.76 47.856L209.509 46.887L209.509 46.887L207.76 47.856ZM207.688 25.968L205.938 24.999L205.932 25.0094L205.927 25.0198L207.688 25.968ZM214.888 18.768L215.847 20.5227L215.847 20.5227L214.888 18.768ZM235.84 18.696L234.89 20.456L234.89 20.456L235.84 18.696ZM242.896 25.68L241.147 26.6513L241.153 26.6618L241.159 26.6723L242.896 25.68ZM232.888 33.024V35.024H234.888V33.024H232.888ZM230.728 27.984L232.037 26.4726L232.037 26.4726L230.728 27.984ZM220.072 27.912L218.791 26.3756L218.778 26.3863L218.766 26.3972L220.072 27.912ZM217.48 33.024L215.502 32.7231L215.152 35.024H217.48V33.024ZM243.488 36.264C243.488 37.3329 243.421 38.4561 243.285 39.6348L247.258 40.0932C247.41 38.7759 247.488 37.4991 247.488 36.264H243.488ZM245.272 37.864H217.408V41.864H245.272V37.864ZM215.413 40.0174C215.632 42.8544 216.557 45.2887 218.394 47.0628L221.173 44.1852C220.226 43.2713 219.567 41.8656 219.402 39.7106L215.413 40.0174ZM218.446 47.1106C220.278 48.76 222.517 49.568 225.04 49.568V45.568C223.434 45.568 222.169 45.08 221.121 44.1374L218.446 47.1106ZM225.04 49.568C226.858 49.568 228.538 49.1829 229.983 48.3059C231.438 47.4232 232.52 46.1237 233.263 44.5202L229.633 42.8398C229.175 43.8283 228.589 44.4728 227.908 44.8861C227.218 45.3051 226.294 45.568 225.04 45.568V49.568ZM231.448 45.68H244.552V41.68H231.448V45.68ZM242.613 43.1866C242.017 45.5308 240.934 47.6363 239.349 49.5208L242.41 52.0952C244.378 49.7557 245.742 47.1092 246.49 44.1734L242.613 43.1866ZM239.332 49.5415C237.81 51.4011 235.878 52.8741 233.5 53.9553L235.155 57.5967C238.057 56.2779 240.493 54.4389 242.427 52.0745L239.332 49.5415ZM233.5 53.9553C231.151 55.0231 228.486 55.576 225.472 55.576V59.576C228.985 59.576 232.224 58.9289 235.155 57.5967L233.5 53.9553ZM225.472 55.576C221.829 55.576 218.662 54.8012 215.919 53.3013L214 56.8107C217.401 58.6708 221.242 59.576 225.472 59.576V55.576ZM215.919 53.3013C213.186 51.8066 211.057 49.6821 209.509 46.887L206.01 48.825C207.918 52.2699 210.589 54.9454 214 56.8107L215.919 53.3013ZM209.509 46.887C207.971 44.1106 207.168 40.8072 207.168 36.912H203.168C203.168 41.3688 204.092 45.3614 206.01 48.825L209.509 46.887ZM207.168 36.912C207.168 33.0079 207.951 29.6968 209.449 26.9162L205.927 25.0198C204.064 28.4792 203.168 32.4641 203.168 36.912H207.168ZM209.437 26.937C210.985 24.1419 213.114 22.0174 215.847 20.5227L213.928 17.0133C210.517 18.8786 207.846 21.5541 205.938 24.999L209.437 26.937ZM215.847 20.5227C218.586 19.0247 221.776 18.248 225.472 18.248V14.248C221.199 14.248 217.333 15.1513 213.928 17.0133L215.847 20.5227ZM225.472 18.248C229.072 18.248 232.194 19.0013 234.89 20.456L236.789 16.936C233.437 15.1267 229.647 14.248 225.472 14.248V18.248ZM234.89 20.456C237.575 21.9054 239.651 23.9586 241.147 26.6513L244.644 24.7087C242.78 21.3534 240.152 18.7506 236.789 16.936L234.89 20.456ZM241.159 26.6723C242.689 29.3493 243.488 32.5246 243.488 36.264H247.488C247.488 31.9394 246.558 28.0587 244.632 24.6877L241.159 26.6723ZM234.888 33.024C234.888 30.4025 233.966 28.1444 232.037 26.4726L229.418 29.4954C230.369 30.3196 230.888 31.4215 230.888 33.024H234.888ZM232.037 26.4726C230.185 24.8673 227.9 24.112 225.328 24.112V28.112C227.075 28.112 228.39 28.6047 229.418 29.4954L232.037 26.4726ZM225.328 24.112C222.846 24.112 220.628 24.8452 218.791 26.3756L221.352 29.4484C222.395 28.5788 223.681 28.112 225.328 28.112V24.112ZM218.766 26.3972C216.939 27.9722 215.894 30.1491 215.502 32.7231L219.457 33.3249C219.737 31.4828 220.42 30.2518 221.377 29.4268L218.766 26.3972ZM217.48 35.024H232.888V31.024H217.48V35.024ZM291.655 21L290.173 22.343L290.184 22.3552L290.195 22.3671L291.655 21ZM295.903 57V59H297.903V57H295.903ZM283.663 57H281.663V59H283.663V57ZM281.575 28.92L280.114 30.2863L280.114 30.2863L281.575 28.92ZM270.343 28.92L271.803 30.2863L271.803 30.2863L270.343 28.92ZM268.255 57V59H270.255V57H268.255ZM255.943 57H253.943V59H255.943V57ZM255.943 16.824V14.824H253.943V16.824H255.943ZM268.255 16.824H270.255V14.824H268.255V16.824ZM268.255 22.152H266.255V28.4767L269.891 23.3019L268.255 22.152ZM273.295 17.976L274.156 19.781L274.173 19.7731L274.189 19.7649L273.295 17.976ZM280.423 18.392C284.646 18.392 287.821 19.7479 290.173 22.343L293.137 19.657C289.921 16.1081 285.607 14.392 280.423 14.392V18.392ZM290.195 22.3671C292.589 24.9236 293.903 28.5573 293.903 33.528H297.903C297.903 27.8427 296.384 23.1244 293.115 19.6329L290.195 22.3671ZM293.903 33.528V57H297.903V33.528H293.903ZM295.903 55H283.663V59H295.903V55ZM285.663 57V35.184H281.663V57H285.663ZM285.663 35.184C285.663 32.1549 284.873 29.518 283.035 27.5537L280.114 30.2863C281.061 31.298 281.663 32.8371 281.663 35.184H285.663ZM283.035 27.5537C281.206 25.5979 278.771 24.688 275.959 24.688V28.688C277.851 28.688 279.16 29.2661 280.114 30.2863L283.035 27.5537ZM275.959 24.688C273.147 24.688 270.712 25.5979 268.882 27.5537L271.803 30.2863C272.758 29.2661 274.067 28.688 275.959 28.688V24.688ZM268.882 27.5537C267.045 29.518 266.255 32.1549 266.255 35.184H270.255C270.255 32.8371 270.857 31.298 271.803 30.2863L268.882 27.5537ZM266.255 35.184V57H270.255V35.184H266.255ZM268.255 55H255.943V59H268.255V55ZM257.943 57V16.824H253.943V57H257.943ZM255.943 18.824H268.255V14.824H255.943V18.824ZM266.255 16.824V22.152H270.255V16.824H266.255ZM269.891 23.3019C270.926 21.8291 272.33 20.6528 274.156 19.781L272.433 16.171C270.036 17.3152 268.079 18.9229 266.618 21.0021L269.891 23.3019ZM274.189 19.7649C275.992 18.8634 278.056 18.392 280.423 18.392V14.392C277.509 14.392 274.821 14.9766 272.4 16.1871L274.189 19.7649ZM308.274 25.968L306.491 25.0626L306.485 25.0736L306.48 25.0846L308.274 25.968ZM314.682 18.768L315.742 20.464L315.742 20.464L314.682 18.768ZM330.882 17.904L329.972 19.6849L329.98 19.6889L329.988 19.6929L330.882 17.904ZM336.066 22.368L334.402 23.4774L338.066 28.9736V22.368H336.066ZM336.066 3.72V1.72H334.066V3.72H336.066ZM348.378 3.72H350.378V1.72H348.378V3.72ZM348.378 57V59H350.378V57H348.378ZM336.066 57H334.066V59H336.066V57ZM336.066 51.24H338.066V44.0194L334.351 50.211L336.066 51.24ZM331.098 55.848L330.157 54.0833L330.149 54.0877L330.141 54.0922L331.098 55.848ZM314.682 55.056L313.601 56.7384L313.612 56.7452L313.622 56.752L314.682 55.056ZM308.274 47.784L306.475 48.6565L306.483 48.673L306.491 48.6894L308.274 47.784ZM333.474 29.64L332.021 31.0144L332.031 31.0246L332.041 31.0347L333.474 29.64ZM321.018 29.64L319.585 28.2453L319.584 28.2458L321.018 29.64ZM321.018 44.184L319.547 45.539L319.566 45.5591L319.585 45.5787L321.018 44.184ZM333.474 44.184L332.041 42.7893L332.031 42.7994L332.021 42.8096L333.474 44.184ZM307.97 36.84C307.97 32.9615 308.691 29.6497 310.069 26.8514L306.48 25.0846C304.786 28.5263 303.97 32.4625 303.97 36.84H307.97ZM310.058 26.8734C311.495 24.0431 313.394 21.9315 315.742 20.464L313.622 17.072C310.594 18.9645 308.222 21.6529 306.491 25.0626L310.058 26.8734ZM315.742 20.464C318.098 18.9918 320.728 18.248 323.682 18.248V14.248C320.013 14.248 316.643 15.1842 313.622 17.072L315.742 20.464ZM323.682 18.248C326.034 18.248 328.118 18.7373 329.972 19.6849L331.793 16.1231C329.326 14.8627 326.61 14.248 323.682 14.248V18.248ZM329.988 19.6929C331.916 20.6567 333.366 21.9226 334.402 23.4774L337.73 21.2586C336.271 19.0694 334.265 17.3593 331.777 16.1151L329.988 19.6929ZM338.066 22.368V3.72H334.066V22.368H338.066ZM336.066 5.72H348.378V1.72H336.066V5.72ZM346.378 3.72V57H350.378V3.72H346.378ZM348.378 55H336.066V59H348.378V55ZM338.066 57V51.24H334.066V57H338.066ZM334.351 50.211C333.403 51.7915 332.028 53.0854 330.157 54.0833L332.04 57.6127C334.489 56.3066 336.426 54.5285 337.781 52.269L334.351 50.211ZM330.141 54.0922C328.371 55.0577 326.239 55.576 323.682 55.576V59.576C326.79 59.576 329.602 58.9423 332.056 57.6038L330.141 54.0922ZM323.682 55.576C320.728 55.576 318.098 54.8322 315.742 53.36L313.622 56.752C316.643 58.6398 320.013 59.576 323.682 59.576V55.576ZM315.764 53.3736C313.403 51.8557 311.497 49.7129 310.058 46.8786L306.491 48.6894C308.22 52.0951 310.586 54.8003 313.601 56.7384L315.764 53.3736ZM310.074 46.9115C308.691 44.0585 307.97 40.7176 307.97 36.84H303.97C303.97 41.2184 304.786 45.1735 306.475 48.6565L310.074 46.9115ZM338.066 36.912C338.066 33.4508 337.082 30.4795 334.908 28.2453L332.041 31.0347C333.323 32.3525 334.066 34.2292 334.066 36.912H338.066ZM334.927 28.2656C332.869 26.0896 330.279 24.976 327.282 24.976V28.976C329.182 28.976 330.72 29.6384 332.021 31.0144L334.927 28.2656ZM327.282 24.976C324.287 24.976 321.684 26.0876 319.585 28.2453L322.452 31.0347C323.808 29.6404 325.382 28.976 327.282 28.976V24.976ZM319.584 28.2458C317.449 30.4421 316.498 33.3967 316.498 36.84H320.498C320.498 34.1393 321.228 32.2939 322.452 31.0342L319.584 28.2458ZM316.498 36.84C316.498 40.2886 317.451 43.2628 319.547 45.539L322.489 42.829C321.226 41.4572 320.498 39.5354 320.498 36.84H316.498ZM319.585 45.5787C321.684 47.7364 324.287 48.848 327.282 48.848V44.848C325.382 44.848 323.808 44.1836 322.452 42.7893L319.585 45.5787ZM327.282 48.848C330.279 48.848 332.869 47.7344 334.927 45.5584L332.021 42.8096C330.72 44.1856 329.182 44.848 327.282 44.848V48.848ZM334.908 45.5787C337.082 43.3445 338.066 40.3732 338.066 36.912H334.066C334.066 39.5948 333.323 41.4715 332.041 42.7893L334.908 45.5787ZM380.319 25.968L378.536 25.0626L378.53 25.0736L378.525 25.0846L380.319 25.968ZM386.727 18.768L387.787 20.464L387.787 20.464L386.727 18.768ZM402.927 17.904L402.017 19.6849L402.025 19.6889L402.033 19.6929L402.927 17.904ZM408.111 22.368L406.447 23.4774L410.111 28.9736V22.368H408.111ZM408.111 3.72V1.72H406.111V3.72H408.111ZM420.423 3.72H422.423V1.72H420.423V3.72ZM420.423 57V59H422.423V57H420.423ZM408.111 57H406.111V59H408.111V57ZM408.111 51.24H410.111V44.0194L406.396 50.211L408.111 51.24ZM403.143 55.848L402.202 54.0833L402.194 54.0877L402.186 54.0922L403.143 55.848ZM386.727 55.056L385.646 56.7384L385.657 56.7452L385.667 56.752L386.727 55.056ZM380.319 47.784L378.52 48.6565L378.528 48.673L378.536 48.6894L380.319 47.784ZM405.519 29.64L404.066 31.0144L404.076 31.0246L404.086 31.0347L405.519 29.64ZM393.063 29.64L391.63 28.2453L391.629 28.2458L393.063 29.64ZM393.063 44.184L391.592 45.539L391.611 45.5591L391.63 45.5787L393.063 44.184ZM405.519 44.184L404.086 42.7893L404.076 42.7994L404.066 42.8096L405.519 44.184ZM380.015 36.84C380.015 32.9615 380.736 29.6497 382.114 26.8514L378.525 25.0846C376.831 28.5263 376.015 32.4625 376.015 36.84H380.015ZM382.103 26.8734C383.54 24.0431 385.439 21.9315 387.787 20.464L385.667 17.072C382.639 18.9645 380.267 21.6529 378.536 25.0626L382.103 26.8734ZM387.787 20.464C390.143 18.9918 392.773 18.248 395.727 18.248V14.248C392.058 14.248 388.688 15.1842 385.667 17.072L387.787 20.464ZM395.727 18.248C398.079 18.248 400.163 18.7373 402.017 19.6849L403.838 16.1231C401.371 14.8627 398.655 14.248 395.727 14.248V18.248ZM402.033 19.6929C403.961 20.6567 405.411 21.9226 406.447 23.4774L409.775 21.2586C408.316 19.0694 406.31 17.3593 403.822 16.1151L402.033 19.6929ZM410.111 22.368V3.72H406.111V22.368H410.111ZM408.111 5.72H420.423V1.72H408.111V5.72ZM418.423 3.72V57H422.423V3.72H418.423ZM420.423 55H408.111V59H420.423V55ZM410.111 57V51.24H406.111V57H410.111ZM406.396 50.211C405.448 51.7915 404.073 53.0854 402.202 54.0833L404.085 57.6127C406.534 56.3066 408.471 54.5285 409.826 52.269L406.396 50.211ZM402.186 54.0922C400.416 55.0577 398.284 55.576 395.727 55.576V59.576C398.835 59.576 401.647 58.9423 404.101 57.6038L402.186 54.0922ZM395.727 55.576C392.773 55.576 390.143 54.8322 387.787 53.36L385.667 56.752C388.688 58.6398 392.058 59.576 395.727 59.576V55.576ZM387.809 53.3736C385.448 51.8557 383.542 49.7129 382.103 46.8786L378.536 48.6894C380.265 52.0951 382.631 54.8003 385.646 56.7384L387.809 53.3736ZM382.119 46.9115C380.736 44.0585 380.015 40.7176 380.015 36.84H376.015C376.015 41.2184 376.831 45.1735 378.52 48.6565L382.119 46.9115ZM410.111 36.912C410.111 33.4508 409.127 30.4795 406.953 28.2453L404.086 31.0347C405.368 32.3525 406.111 34.2292 406.111 36.912H410.111ZM406.972 28.2656C404.914 26.0896 402.324 24.976 399.327 24.976V28.976C401.227 28.976 402.765 29.6384 404.066 31.0144L406.972 28.2656ZM399.327 24.976C396.332 24.976 393.729 26.0876 391.63 28.2453L394.497 31.0347C395.854 29.6404 397.427 28.976 399.327 28.976V24.976ZM391.629 28.2458C389.494 30.4421 388.543 33.3967 388.543 36.84H392.543C392.543 34.1393 393.273 32.2939 394.497 31.0342L391.629 28.2458ZM388.543 36.84C388.543 40.2886 389.496 43.2628 391.592 45.539L394.534 42.829C393.271 41.4572 392.543 39.5354 392.543 36.84H388.543ZM391.63 45.5787C393.729 47.7364 396.332 48.848 399.327 48.848V44.848C397.427 44.848 395.854 44.1836 394.497 42.7893L391.63 45.5787ZM399.327 48.848C402.324 48.848 404.914 47.7344 406.972 45.5584L404.066 42.8096C402.765 44.1856 401.227 44.848 399.327 44.848V48.848ZM406.953 45.5787C409.127 43.3445 410.111 40.3732 410.111 36.912H406.111C406.111 39.5948 405.368 41.4715 404.086 42.7893L406.953 45.5787ZM470.947 39.864V41.864H472.729L472.933 40.0932L470.947 39.864ZM443.083 39.864V37.864H440.923L441.088 40.0174L443.083 39.864ZM445.459 45.624L444.069 47.0628L444.095 47.0871L444.121 47.1106L445.459 45.624ZM457.123 43.68V41.68H455.845L455.308 42.8398L457.123 43.68ZM470.227 43.68L472.165 44.1734L472.799 41.68H470.227V43.68ZM466.555 50.808L465.024 49.5208L465.015 49.5311L465.007 49.5415L466.555 50.808ZM460.003 55.776L460.83 57.5967L460.003 55.776ZM440.635 55.056L439.675 56.8107L439.675 56.8107L440.635 55.056ZM433.435 47.856L435.184 46.887L435.184 46.887L433.435 47.856ZM433.363 25.968L431.613 24.999L431.607 25.0094L431.602 25.0198L433.363 25.968ZM440.563 18.768L441.522 20.5227L441.522 20.5227L440.563 18.768ZM461.515 18.696L460.565 20.456L460.565 20.456L461.515 18.696ZM468.571 25.68L466.822 26.6513L466.828 26.6618L466.834 26.6723L468.571 25.68ZM458.563 33.024V35.024H460.563V33.024H458.563ZM456.403 27.984L457.712 26.4726L457.712 26.4726L456.403 27.984ZM445.747 27.912L444.466 26.3756L444.453 26.3863L444.441 26.3972L445.747 27.912ZM443.155 33.024L441.177 32.7231L440.827 35.024H443.155V33.024ZM469.163 36.264C469.163 37.3329 469.096 38.4561 468.96 39.6348L472.933 40.0932C473.085 38.7759 473.163 37.4991 473.163 36.264H469.163ZM470.947 37.864H443.083V41.864H470.947V37.864ZM441.088 40.0174C441.307 42.8544 442.232 45.2887 444.069 47.0628L446.848 44.1852C445.901 43.2713 445.242 41.8656 445.077 39.7106L441.088 40.0174ZM444.121 47.1106C445.953 48.76 448.192 49.568 450.715 49.568V45.568C449.109 45.568 447.844 45.08 446.796 44.1374L444.121 47.1106ZM450.715 49.568C452.533 49.568 454.213 49.1829 455.658 48.3059C457.113 47.4232 458.195 46.1237 458.938 44.5202L455.308 42.8398C454.85 43.8283 454.264 44.4728 453.583 44.8861C452.893 45.3051 451.969 45.568 450.715 45.568V49.568ZM457.123 45.68H470.227V41.68H457.123V45.68ZM468.288 43.1866C467.692 45.5308 466.609 47.6363 465.024 49.5208L468.085 52.0952C470.053 49.7557 471.417 47.1092 472.165 44.1734L468.288 43.1866ZM465.007 49.5415C463.485 51.4011 461.553 52.8741 459.175 53.9553L460.83 57.5967C463.732 56.2779 466.168 54.4389 468.102 52.0745L465.007 49.5415ZM459.175 53.9553C456.826 55.0231 454.161 55.576 451.147 55.576V59.576C454.66 59.576 457.899 58.9289 460.83 57.5967L459.175 53.9553ZM451.147 55.576C447.504 55.576 444.337 54.8012 441.594 53.3013L439.675 56.8107C443.076 58.6708 446.917 59.576 451.147 59.576V55.576ZM441.594 53.3013C438.861 51.8066 436.732 49.6821 435.184 46.887L431.685 48.825C433.593 52.2699 436.264 54.9454 439.675 56.8107L441.594 53.3013ZM435.184 46.887C433.646 44.1106 432.843 40.8072 432.843 36.912H428.843C428.843 41.3688 429.767 45.3614 431.685 48.825L435.184 46.887ZM432.843 36.912C432.843 33.0079 433.626 29.6968 435.124 26.9162L431.602 25.0198C429.739 28.4792 428.843 32.4641 428.843 36.912H432.843ZM435.112 26.937C436.66 24.1419 438.789 22.0174 441.522 20.5227L439.603 17.0133C436.192 18.8786 433.521 21.5541 431.613 24.999L435.112 26.937ZM441.522 20.5227C444.261 19.0247 447.451 18.248 451.147 18.248V14.248C446.874 14.248 443.008 15.1513 439.603 17.0133L441.522 20.5227ZM451.147 18.248C454.747 18.248 457.869 19.0013 460.565 20.456L462.464 16.936C459.112 15.1267 455.322 14.248 451.147 14.248V18.248ZM460.565 20.456C463.25 21.9054 465.326 23.9586 466.822 26.6513L470.319 24.7087C468.455 21.3534 465.827 18.7506 462.464 16.936L460.565 20.456ZM466.834 26.6723C468.364 29.3493 469.163 32.5246 469.163 36.264H473.163C473.163 31.9394 472.233 28.0587 470.307 24.6877L466.834 26.6723ZM460.563 33.024C460.563 30.4025 459.641 28.1444 457.712 26.4726L455.093 29.4954C456.044 30.3196 456.563 31.4215 456.563 33.024H460.563ZM457.712 26.4726C455.86 24.8673 453.575 24.112 451.003 24.112V28.112C452.75 28.112 454.065 28.6047 455.093 29.4954L457.712 26.4726ZM451.003 24.112C448.521 24.112 446.303 24.8452 444.466 26.3756L447.027 29.4484C448.07 28.5788 449.356 28.112 451.003 28.112V24.112ZM444.441 26.3972C442.614 27.9722 441.569 30.1491 441.177 32.7231L445.132 33.3249C445.412 31.4828 446.095 30.2518 447.052 29.4268L444.441 26.3972ZM443.155 35.024H458.563V31.024H443.155V35.024ZM499.69 45.48L497.776 46.0617L499.69 52.3558L501.603 46.0617L499.69 45.48ZM508.402 16.824V14.824H506.919L506.488 16.2422L508.402 16.824ZM521.506 16.824L523.391 17.4928L524.338 14.824H521.506V16.824ZM507.25 57V59H508.662L509.135 57.6688L507.25 57ZM492.058 57L490.173 57.6688L490.645 59H492.058V57ZM477.802 16.824V14.824H474.97L475.917 17.4928L477.802 16.824ZM490.978 16.824L492.891 16.2422L492.46 14.824H490.978V16.824ZM501.603 46.0617L510.315 17.4057L506.488 16.2422L497.776 44.8982L501.603 46.0617ZM508.402 18.824H521.506V14.824H508.402V18.824ZM519.621 16.1552L505.365 56.3312L509.135 57.6688L523.391 17.4928L519.621 16.1552ZM507.25 55H492.058V59H507.25V55ZM493.943 56.3312L479.687 16.1552L475.917 17.4928L490.173 57.6688L493.943 56.3312ZM477.802 18.824H490.978V14.824H477.802V18.824ZM489.064 17.4057L497.776 46.0617L501.603 44.8982L492.891 16.2422L489.064 17.4057ZM568.304 39.864V41.864H570.087L570.291 40.0932L568.304 39.864ZM540.44 39.864V37.864H538.28L538.446 40.0174L540.44 39.864ZM542.816 45.624L541.427 47.0628L541.452 47.0871L541.478 47.1106L542.816 45.624ZM554.48 43.68V41.68H553.202L552.665 42.8398L554.48 43.68ZM567.584 43.68L569.522 44.1734L570.157 41.68H567.584V43.68ZM563.912 50.808L562.381 49.5208L562.373 49.5311L562.364 49.5415L563.912 50.808ZM557.36 55.776L558.188 57.5967L557.36 55.776ZM537.992 55.056L537.032 56.8107L537.032 56.8107L537.992 55.056ZM530.792 47.856L532.542 46.887L532.542 46.887L530.792 47.856ZM530.72 25.968L528.97 24.999L528.965 25.0094L528.959 25.0198L530.72 25.968ZM537.92 18.768L538.88 20.5227L538.88 20.5227L537.92 18.768ZM558.872 18.696L557.922 20.456L557.922 20.456L558.872 18.696ZM565.928 25.68L564.18 26.6513L564.186 26.6618L564.192 26.6723L565.928 25.68ZM555.92 33.024V35.024H557.92V33.024H555.92ZM553.76 27.984L555.07 26.4726L555.07 26.4726L553.76 27.984ZM543.104 27.912L541.824 26.3756L541.811 26.3863L541.798 26.3972L543.104 27.912ZM540.512 33.024L538.535 32.7231L538.185 35.024H540.512V33.024ZM566.52 36.264C566.52 37.3329 566.453 38.4561 566.317 39.6348L570.291 40.0932C570.443 38.7759 570.52 37.4991 570.52 36.264H566.52ZM568.304 37.864H540.44V41.864H568.304V37.864ZM538.446 40.0174C538.664 42.8544 539.589 45.2887 541.427 47.0628L544.205 44.1852C543.259 43.2713 542.6 41.8656 542.434 39.7106L538.446 40.0174ZM541.478 47.1106C543.311 48.76 545.549 49.568 548.072 49.568V45.568C546.467 45.568 545.201 45.08 544.154 44.1374L541.478 47.1106ZM548.072 49.568C549.89 49.568 551.57 49.1829 553.016 48.3059C554.47 47.4232 555.553 46.1237 556.295 44.5202L552.665 42.8398C552.207 43.8283 551.622 44.4728 550.941 44.8861C550.25 45.3051 549.326 45.568 548.072 45.568V49.568ZM554.48 45.68H567.584V41.68H554.48V45.68ZM565.646 43.1866C565.049 45.5308 563.966 47.6363 562.381 49.5208L565.443 52.0952C567.41 49.7557 568.775 47.1092 569.522 44.1734L565.646 43.1866ZM562.364 49.5415C560.843 51.4011 558.911 52.8741 556.532 53.9553L558.188 57.5967C561.089 56.2779 563.526 54.4389 565.46 52.0745L562.364 49.5415ZM556.532 53.9553C554.183 55.0231 551.519 55.576 548.504 55.576V59.576C552.018 59.576 555.257 58.9289 558.188 57.5967L556.532 53.9553ZM548.504 55.576C544.861 55.576 541.694 54.8012 538.952 53.3013L537.032 56.8107C540.434 58.6708 544.275 59.576 548.504 59.576V55.576ZM538.952 53.3013C536.219 51.8066 534.09 49.6821 532.542 46.887L529.042 48.825C530.95 52.2699 533.622 54.9454 537.032 56.8107L538.952 53.3013ZM532.542 46.887C531.004 44.1106 530.2 40.8072 530.2 36.912H526.2C526.2 41.3688 527.124 45.3614 529.042 48.825L532.542 46.887ZM530.2 36.912C530.2 33.0079 530.984 29.6968 532.481 26.9162L528.959 25.0198C527.096 28.4792 526.2 32.4641 526.2 36.912H530.2ZM532.47 26.937C534.018 24.1419 536.147 22.0174 538.88 20.5227L536.96 17.0133C533.55 18.8786 530.878 21.5541 528.97 24.999L532.47 26.937ZM538.88 20.5227C541.619 19.0247 544.809 18.248 548.504 18.248V14.248C544.232 14.248 540.365 15.1513 536.96 17.0133L538.88 20.5227ZM548.504 18.248C552.105 18.248 555.227 19.0013 557.922 20.456L559.822 16.936C556.47 15.1267 552.68 14.248 548.504 14.248V18.248ZM557.922 20.456C560.608 21.9054 562.684 23.9586 564.18 26.6513L567.676 24.7087C565.812 21.3534 563.184 18.7506 559.822 16.936L557.922 20.456ZM564.192 26.6723C565.721 29.3493 566.52 32.5246 566.52 36.264H570.52C570.52 31.9394 569.591 28.0587 567.665 24.6877L564.192 26.6723ZM557.92 33.024C557.92 30.4025 556.999 28.1444 555.07 26.4726L552.45 29.4954C553.401 30.3196 553.92 31.4215 553.92 33.024H557.92ZM555.07 26.4726C553.218 24.8673 550.933 24.112 548.36 24.112V28.112C550.107 28.112 551.422 28.6047 552.45 29.4954L555.07 26.4726ZM548.36 24.112C545.879 24.112 543.66 24.8452 541.824 26.3756L544.384 29.4484C545.428 28.5788 546.713 28.112 548.36 28.112V24.112ZM541.798 26.3972C539.971 27.9722 538.927 30.1491 538.535 32.7231L542.489 33.3249C542.77 31.4828 543.453 30.2518 544.41 29.4268L541.798 26.3972ZM540.512 35.024H555.92V31.024H540.512V35.024ZM591.287 3.72H593.287V1.72H591.287V3.72ZM591.287 57V59H593.287V57H591.287ZM578.975 57H576.975V59H578.975V57ZM578.975 3.72V1.72H576.975V3.72H578.975ZM589.287 3.72V57H593.287V3.72H589.287ZM591.287 55H578.975V59H591.287V55ZM580.975 57V3.72H576.975V57H580.975ZM578.975 5.72H591.287V1.72H578.975V5.72ZM611.802 55.056L610.853 56.817L610.865 56.8229L611.802 55.056ZM604.386 47.856L602.647 48.8454L602.653 48.8554L602.659 48.8654L604.386 47.856ZM604.458 26.04L606.184 27.0494L606.191 27.0379L604.458 26.04ZM611.946 18.768L612.883 20.5349L612.883 20.5349L611.946 18.768ZM633.258 18.768L632.321 20.5349L632.321 20.5349L633.258 18.768ZM640.746 26.04L639.012 27.038L639.019 27.0494L640.746 26.04ZM640.674 47.856L638.952 46.8385L638.947 46.8466L640.674 47.856ZM633.114 55.056L632.188 53.2833L632.177 53.2891L633.114 55.056ZM628.434 44.328L627 42.9338L626.99 42.9442L626.98 42.9548L628.434 44.328ZM628.506 29.496L627.031 30.8474L627.041 30.8584L627.052 30.8692L628.506 29.496ZM616.626 29.496L618.081 30.868L618.09 30.8578L618.1 30.8474L616.626 29.496ZM616.554 44.328L615.059 45.6567L615.069 45.6682L615.079 45.6794L616.554 44.328ZM622.458 55.576C618.816 55.576 615.591 54.8015 612.739 53.2891L610.865 56.8229C614.349 58.6705 618.227 59.576 622.458 59.576V55.576ZM612.75 53.2951C609.96 51.7929 607.755 49.656 606.112 46.8466L602.659 48.8654C604.665 52.296 607.403 54.9591 610.853 56.8169L612.75 53.2951ZM606.124 46.8666C604.546 44.0942 603.722 40.7982 603.722 36.912H599.722C599.722 41.3778 600.674 45.3778 602.647 48.8454L606.124 46.8666ZM603.722 36.912C603.722 33.0874 604.564 29.8217 606.184 27.0494L602.731 25.0306C600.704 28.4983 599.722 32.4806 599.722 36.912H603.722ZM606.191 27.0379C607.831 24.1894 610.054 22.035 612.883 20.5349L611.009 17.0011C607.501 18.861 604.732 21.5546 602.724 25.0421L606.191 27.0379ZM612.883 20.5349C615.735 19.0225 618.96 18.248 622.602 18.248V14.248C618.371 14.248 614.493 15.1535 611.009 17.0011L612.883 20.5349ZM622.602 18.248C626.243 18.248 629.469 19.0225 632.321 20.5349L634.195 17.0011C630.711 15.1535 626.832 14.248 622.602 14.248V18.248ZM632.321 20.5349C635.149 22.035 637.372 24.1894 639.012 27.0379L642.479 25.0421C640.471 21.5546 637.702 18.861 634.195 17.0011L632.321 20.5349ZM639.019 27.0494C640.64 29.8217 641.482 33.0874 641.482 36.912H645.482C645.482 32.4806 644.5 28.4983 642.472 25.0306L639.019 27.0494ZM641.482 36.912C641.482 40.7267 640.62 44.015 638.952 46.8385L642.395 48.8735C644.471 45.361 645.482 41.3533 645.482 36.912H641.482ZM638.947 46.8466C637.314 49.6406 635.072 51.7767 632.188 53.2833L634.04 56.8287C637.588 54.9753 640.386 52.3114 642.4 48.8654L638.947 46.8466ZM632.177 53.2891C629.325 54.8015 626.099 55.576 622.458 55.576V59.576C626.688 59.576 630.567 58.6705 634.051 56.8229L632.177 53.2891ZM622.458 48.92C625.366 48.92 627.882 47.8245 629.888 45.7012L626.98 42.9548C625.721 44.2875 624.253 44.92 622.458 44.92V48.92ZM629.868 45.7222C632.019 43.5096 632.954 40.4696 632.954 36.912H628.954C628.954 39.7864 628.209 41.6904 627 42.9338L629.868 45.7222ZM632.954 36.912C632.954 33.369 632.051 30.3369 629.96 28.1228L627.052 30.8692C628.224 32.1111 628.954 34.023 628.954 36.912H632.954ZM629.98 28.1445C628.016 26.0017 625.512 24.904 622.602 24.904V28.904C624.395 28.904 625.828 29.5343 627.031 30.8474L629.98 28.1445ZM622.602 24.904C619.656 24.904 617.124 25.9922 615.151 28.1445L618.1 30.8474C619.295 29.5438 620.747 28.904 622.602 28.904V24.904ZM615.17 28.124C613.114 30.3047 612.25 33.3494 612.25 36.912H616.25C616.25 33.9466 616.969 32.0473 618.081 30.868L615.17 28.124ZM612.25 36.912C612.25 40.4263 613.089 43.4411 615.059 45.6567L618.048 42.9993C616.946 41.7589 616.25 39.8297 616.25 36.912H612.25ZM615.079 45.6794C617.044 47.8223 619.547 48.92 622.458 48.92V44.92C620.664 44.92 619.232 44.2897 618.028 42.9765L615.079 45.6794ZM666.285 22.512H664.285V29.338L667.969 23.5913L666.285 22.512ZM671.253 17.976L670.296 16.2202L670.296 16.2202L671.253 17.976ZM687.669 18.768L686.609 20.464L686.609 20.464L687.669 18.768ZM694.005 25.968L692.211 26.8514L692.216 26.8624L692.222 26.8734L694.005 25.968ZM694.005 47.784L692.217 46.8896L692.211 46.9006L694.005 47.784ZM687.669 55.056L688.729 56.752L688.74 56.7452L688.751 56.7384L687.669 55.056ZM671.253 55.848L670.296 57.6038L670.304 57.6083L670.312 57.6127L671.253 55.848ZM666.285 51.384L667.956 50.2848L664.285 44.7051V51.384H666.285ZM666.285 76.152V78.152H668.285V76.152H666.285ZM653.973 76.152H651.973V78.152H653.973V76.152ZM653.973 16.824V14.824H651.973V16.824H653.973ZM666.285 16.824H668.285V14.824H666.285V16.824ZM681.261 29.64L679.808 31.0144L679.828 31.0346L679.847 31.0542L681.261 29.64ZM668.733 29.64L667.3 28.2453L667.29 28.2554L667.28 28.2656L668.733 29.64ZM668.733 44.184L667.28 45.5584L667.29 45.5686L667.3 45.5787L668.733 44.184ZM681.261 44.184L682.695 45.5787L682.704 45.5692L682.713 45.5595L681.261 44.184ZM667.969 23.5913C668.973 22.0251 670.369 20.7364 672.211 19.7318L670.296 16.2202C667.914 17.5196 665.998 19.2549 664.602 21.4327L667.969 23.5913ZM672.211 19.7318C673.981 18.7663 676.113 18.248 678.669 18.248V14.248C675.562 14.248 672.75 14.8817 670.296 16.2202L672.211 19.7318ZM678.669 18.248C681.624 18.248 684.254 18.9918 686.609 20.464L688.729 17.072C685.709 15.1842 682.339 14.248 678.669 14.248V18.248ZM686.609 20.464C688.952 21.9278 690.823 24.0318 692.211 26.8514L695.8 25.0846C694.116 21.6642 691.763 18.9682 688.729 17.072L686.609 20.464ZM692.222 26.8734C693.64 29.6666 694.381 32.9703 694.381 36.84H698.381C698.381 32.4537 697.539 28.5094 695.789 25.0626L692.222 26.8734ZM694.381 36.84C694.381 40.7088 693.64 44.0418 692.217 46.8896L695.794 48.6784C697.538 45.1902 698.381 41.2272 698.381 36.84H694.381ZM692.211 46.9006C690.821 49.7242 688.943 51.8594 686.588 53.3736L688.751 56.7384C691.771 54.7966 694.118 52.0838 695.8 48.6674L692.211 46.9006ZM686.609 53.36C684.254 54.8322 681.624 55.576 678.669 55.576V59.576C682.339 59.576 685.709 58.6398 688.729 56.752L686.609 53.36ZM678.669 55.576C676.168 55.576 674.027 55.0607 672.195 54.0833L670.312 57.6127C672.8 58.9393 675.603 59.576 678.669 59.576V55.576ZM672.211 54.0922C670.357 53.081 668.958 51.8076 667.956 50.2848L664.615 52.4832C666.013 54.6084 667.926 56.311 670.296 57.6038L672.211 54.0922ZM664.285 51.384V76.152H668.285V51.384H664.285ZM666.285 74.152H653.973V78.152H666.285V74.152ZM655.973 76.152V16.824H651.973V76.152H655.973ZM653.973 18.824H666.285V14.824H653.973V18.824ZM664.285 16.824V22.512H668.285V16.824H664.285ZM685.853 36.84C685.853 33.3813 684.869 30.4196 682.676 28.2258L679.847 31.0542C681.109 32.3164 681.853 34.1547 681.853 36.84H685.853ZM682.714 28.2656C680.648 26.0809 678.03 24.976 674.997 24.976V28.976C676.957 28.976 678.515 29.6471 679.808 31.0144L682.714 28.2656ZM674.997 24.976C672.002 24.976 669.399 26.0876 667.3 28.2453L670.167 31.0347C671.524 29.6404 673.097 28.976 674.997 28.976V24.976ZM667.28 28.2656C665.165 30.5019 664.213 33.4659 664.213 36.912H668.213C668.213 34.2141 668.942 32.3301 670.186 31.0144L667.28 28.2656ZM664.213 36.912C664.213 40.3581 665.165 43.3221 667.28 45.5584L670.186 42.8096C668.942 41.4939 668.213 39.6099 668.213 36.912H664.213ZM667.3 45.5787C669.399 47.7364 672.002 48.848 674.997 48.848V44.848C673.097 44.848 671.524 44.1836 670.167 42.7893L667.3 45.5787ZM674.997 48.848C677.993 48.848 680.596 47.7364 682.695 45.5787L679.828 42.7893C678.471 44.1836 676.898 44.848 674.997 44.848V48.848ZM682.713 45.5595C684.868 43.285 685.853 40.3035 685.853 36.84H681.853C681.853 39.5205 681.111 41.435 679.809 42.8085L682.713 45.5595ZM744.457 39.864V41.864H746.239L746.443 40.0932L744.457 39.864ZM716.593 39.864V37.864H714.433L714.598 40.0174L716.593 39.864ZM718.969 45.624L717.579 47.0628L717.605 47.0871L717.631 47.1106L718.969 45.624ZM730.633 43.68V41.68H729.355L728.818 42.8398L730.633 43.68ZM743.737 43.68L745.675 44.1734L746.309 41.68H743.737V43.68ZM740.065 50.808L738.534 49.5208L738.525 49.5311L738.517 49.5415L740.065 50.808ZM733.513 55.776L734.34 57.5967L733.513 55.776ZM714.145 55.056L713.185 56.8107L713.185 56.8107L714.145 55.056ZM706.945 47.856L708.694 46.887L708.694 46.887L706.945 47.856ZM706.873 25.968L705.123 24.999L705.117 25.0094L705.112 25.0198L706.873 25.968ZM714.073 18.768L715.032 20.5227L715.032 20.5227L714.073 18.768ZM735.025 18.696L734.075 20.456L734.075 20.456L735.025 18.696ZM742.081 25.68L740.332 26.6513L740.338 26.6618L740.344 26.6723L742.081 25.68ZM732.073 33.024V35.024H734.073V33.024H732.073ZM729.913 27.984L731.222 26.4726L731.222 26.4726L729.913 27.984ZM719.257 27.912L717.976 26.3756L717.963 26.3863L717.951 26.3972L719.257 27.912ZM716.665 33.024L714.687 32.7231L714.337 35.024H716.665V33.024ZM742.673 36.264C742.673 37.3329 742.606 38.4561 742.47 39.6348L746.443 40.0932C746.595 38.7759 746.673 37.4991 746.673 36.264H742.673ZM744.457 37.864H716.593V41.864H744.457V37.864ZM714.598 40.0174C714.817 42.8544 715.742 45.2887 717.579 47.0628L720.358 44.1852C719.411 43.2713 718.752 41.8656 718.587 39.7106L714.598 40.0174ZM717.631 47.1106C719.463 48.76 721.702 49.568 724.225 49.568V45.568C722.619 45.568 721.354 45.08 720.306 44.1374L717.631 47.1106ZM724.225 49.568C726.043 49.568 727.723 49.1829 729.168 48.3059C730.623 47.4232 731.705 46.1237 732.447 44.5202L728.818 42.8398C728.36 43.8283 727.774 44.4728 727.093 44.8861C726.403 45.3051 725.479 45.568 724.225 45.568V49.568ZM730.633 45.68H743.737V41.68H730.633V45.68ZM741.798 43.1866C741.202 45.5308 740.119 47.6363 738.534 49.5208L741.595 52.0952C743.563 49.7557 744.927 47.1092 745.675 44.1734L741.798 43.1866ZM738.517 49.5415C736.995 51.4011 735.063 52.8741 732.685 53.9553L734.34 57.5967C737.242 56.2779 739.678 54.4389 741.612 52.0745L738.517 49.5415ZM732.685 53.9553C730.336 55.0231 727.671 55.576 724.657 55.576V59.576C728.17 59.576 731.409 58.9289 734.34 57.5967L732.685 53.9553ZM724.657 55.576C721.014 55.576 717.847 54.8012 715.104 53.3013L713.185 56.8107C716.586 58.6708 720.427 59.576 724.657 59.576V55.576ZM715.104 53.3013C712.371 51.8066 710.242 49.6821 708.694 46.887L705.195 48.825C707.103 52.2699 709.774 54.9454 713.185 56.8107L715.104 53.3013ZM708.694 46.887C707.156 44.1106 706.353 40.8072 706.353 36.912H702.353C702.353 41.3688 703.277 45.3614 705.195 48.825L708.694 46.887ZM706.353 36.912C706.353 33.0079 707.136 29.6968 708.633 26.9162L705.112 25.0198C703.249 28.4792 702.353 32.4641 702.353 36.912H706.353ZM708.622 26.937C710.17 24.1419 712.299 22.0174 715.032 20.5227L713.113 17.0133C709.702 18.8786 707.031 21.5541 705.123 24.999L708.622 26.937ZM715.032 20.5227C717.771 19.0247 720.961 18.248 724.657 18.248V14.248C720.384 14.248 716.518 15.1513 713.113 17.0133L715.032 20.5227ZM724.657 18.248C728.257 18.248 731.379 19.0013 734.075 20.456L735.974 16.936C732.622 15.1267 728.832 14.248 724.657 14.248V18.248ZM734.075 20.456C736.76 21.9054 738.836 23.9586 740.332 26.6513L743.829 24.7087C741.965 21.3534 739.337 18.7506 735.974 16.936L734.075 20.456ZM740.344 26.6723C741.874 29.3493 742.673 32.5246 742.673 36.264H746.673C746.673 31.9394 745.743 28.0587 743.817 24.6877L740.344 26.6723ZM734.073 33.024C734.073 30.4025 733.151 28.1444 731.222 26.4726L728.603 29.4954C729.554 30.3196 730.073 31.4215 730.073 33.024H734.073ZM731.222 26.4726C729.37 24.8673 727.085 24.112 724.513 24.112V28.112C726.26 28.112 727.575 28.6047 728.603 29.4954L731.222 26.4726ZM724.513 24.112C722.031 24.112 719.813 24.8452 717.976 26.3756L720.537 29.4484C721.58 28.5788 722.866 28.112 724.513 28.112V24.112ZM717.951 26.3972C716.124 27.9722 715.079 30.1491 714.687 32.7231L718.642 33.3249C718.922 31.4828 719.605 30.2518 720.562 29.4268L717.951 26.3972ZM716.665 35.024H732.073V31.024H716.665V35.024ZM767.44 23.52H765.44V30.2479L769.115 24.6125L767.44 23.52ZM772.84 18.336L773.84 20.0677L773.855 20.0595L773.869 20.051L772.84 18.336ZM780.04 16.392H782.04V14.392H780.04V16.392ZM780.04 29.424V31.424H782.04V29.424H780.04ZM769.744 31.44L771.034 32.9686L771.047 32.957L771.061 32.9452L769.744 31.44ZM767.44 57V59H769.44V57H767.44ZM755.128 57H753.128V59H755.128V57ZM755.128 16.824V14.824H753.128V16.824H755.128ZM767.44 16.824H769.44V14.824H767.44V16.824ZM769.115 24.6125C770.393 22.6523 771.968 21.1497 773.84 20.0677L771.839 16.6043C769.392 18.0183 767.366 19.9717 765.765 22.4275L769.115 24.6125ZM773.869 20.051C775.703 18.9506 777.744 18.392 780.04 18.392V14.392C777.055 14.392 774.297 15.1294 771.811 16.621L773.869 20.051ZM778.04 16.392V29.424H782.04V16.392H778.04ZM780.04 27.424H776.656V31.424H780.04V27.424ZM776.656 27.424C773.336 27.424 770.473 28.1444 768.427 29.9348L771.061 32.9452C772.087 32.0476 773.831 31.424 776.656 31.424V27.424ZM768.454 29.9114C766.245 31.7755 765.44 34.8234 765.44 38.352H769.44C769.44 35.2566 770.171 33.6965 771.034 32.9686L768.454 29.9114ZM765.44 38.352V57H769.44V38.352H765.44ZM767.44 55H755.128V59H767.44V55ZM757.128 57V16.824H753.128V57H757.128ZM755.128 18.824H767.44V14.824H755.128V18.824ZM765.44 16.824V23.52H769.44V16.824H765.44ZM790.317 55.704L788.928 57.1437L788.955 57.1689L788.982 57.1931L790.317 55.704ZM790.317 46.128L788.954 44.6642L788.941 44.6761L788.928 44.6883L790.317 46.128ZM800.829 46.128L799.44 47.5677L799.453 47.5798L799.466 47.5918L800.829 46.128ZM800.829 55.704L802.19 57.1696L802.191 57.1678L800.829 55.704ZM795.645 55.576C793.896 55.576 792.62 55.0833 791.652 54.2149L788.982 57.1931C790.797 58.8207 793.073 59.576 795.645 59.576V55.576ZM791.705 54.2643C790.753 53.3464 790.301 52.2826 790.301 50.952H786.301C786.301 53.3654 787.192 55.4696 788.928 57.1437L791.705 54.2643ZM790.301 50.952C790.301 49.5577 790.764 48.4749 791.705 47.5677L788.928 44.6883C787.181 46.3731 786.301 48.5063 786.301 50.952H790.301ZM791.679 47.5918C792.651 46.6877 793.916 46.184 795.645 46.184V42.184C793.053 42.184 790.767 42.9763 788.954 44.6642L791.679 47.5918ZM795.645 46.184C797.312 46.184 798.519 46.6792 799.44 47.5677L802.217 44.6883C800.45 42.9848 798.201 42.184 795.645 42.184V46.184ZM799.466 47.5918C800.447 48.5054 800.917 49.5812 800.917 50.952H804.917C804.917 48.4828 803.994 46.3426 802.191 44.6642L799.466 47.5918ZM800.917 50.952C800.917 52.2588 800.459 53.3157 799.466 54.2402L802.191 57.1678C803.982 55.5003 804.917 53.3892 804.917 50.952H800.917ZM799.468 54.2384C798.55 55.0909 797.334 55.576 795.645 55.576V59.576C798.179 59.576 800.42 58.8131 802.19 57.1696L799.468 54.2384Z" fill="#0EE6B7"/>
</g>
<defs>
<filter id="filter0_d_102_36" x="0.223999" y="0.552002" width="806.693" height="83.6" filterUnits="userSpaceOnUse" color-interpolation-filters="sRGB">
<feFlood flood-opacity="0" result="BackgroundImageFix"/>
<feColorMatrix in="SourceAlpha" type="matrix" values="0 0 0 0 0 0 0 0 0 0 0 0 0 0 0 0 0 0 127 0" result="hardAlpha"/>
<feOffset dy="4"/>
<feGaussianBlur stdDeviation="2"/>
<feComposite in2="hardAlpha" operator="out"/>
<feColorMatrix type="matrix" values="0 0 0 0 0 0 0 0 0 0 0 0 0 0 0 0 0 0 0.25 0"/>
<feBlend mode="normal" in2="BackgroundImageFix" result="effect1_dropShadow_102_36"/>
<feBlend mode="normal" in="SourceGraphic" in2="effect1_dropShadow_102_36" result="shape"/>
</filter>
</defs>
</svg>
